<?xml version="1.0" encoding="iso-8859-1"?>
<!-- Generator: Adobe Illustrator 19.0.0, SVG Export Plug-In . SVG Version: 6.00 Build 0)  -->
<svg version="1.1" id="Capa_1" xmlns="http://www.w3.org/2000/svg" xmlns:xlink="http://www.w3.org/1999/xlink" x="0px" y="0px"
	 viewBox="0 0 385.567 385.567" style="enable-background:new 0 0 385.567 385.567;" xml:space="preserve">
<path style="fill:#1185E0;" d="M365.192,315.037h-48.588V283.69h32.914v-95.608c0-86.204-70.531-156.735-156.735-156.735
	S36.049,101.878,36.049,188.082v95.608h34.482v31.347H20.376c-8.882,0-15.673-6.792-15.673-15.673V188.082
	C4.702,84.114,88.816,0,192.784,0s188.082,84.114,188.082,188.082v111.282C380.865,308.245,374.073,315.037,365.192,315.037z"/>
<g>
	<path style="fill:#4DCFE0;" d="M127.478,385.567L127.478,385.567l-56.947-0.522c-8.359,0-15.673-7.314-15.673-15.673V234.057
		c0-8.882,6.792-15.673,15.673-15.673h56.947c8.882,0,15.673,6.792,15.673,15.673v135.837c0,4.18-1.567,8.359-4.702,10.971
		C135.314,384,131.657,385.567,127.478,385.567z M86.204,353.698h25.6v-104.49h-25.6V353.698z"/>
	<path style="fill:#4DCFE0;" d="M315.559,385.045H258.09c-8.882,0-15.673-6.792-15.673-15.673V234.057
		c0-8.882,6.792-15.673,15.673-15.673h57.469c8.882,0,15.673,6.792,15.673,15.673v135.314
		C331.233,378.253,324.441,385.045,315.559,385.045z M273.763,353.698h26.122V249.731h-26.122V353.698z"/>
</g>
<g>
</g>
<g>
</g>
<g>
</g>
<g>
</g>
<g>
</g>
<g>
</g>
<g>
</g>
<g>
</g>
<g>
</g>
<g>
</g>
<g>
</g>
<g>
</g>
<g>
</g>
<g>
</g>
<g>
</g>
</svg>
